<mxfile host="app.diagrams.net" agent="Mozilla/5.0 (X11; Linux x86_64; rv:140.0) Gecko/20100101 Firefox/140.0" version="28.0.6">
  <diagram name="Page-1" id="aKBA5UwD-XLCFGgpKf5H">
    <mxGraphModel dx="1373" dy="871" grid="1" gridSize="10" guides="1" tooltips="1" connect="1" arrows="1" fold="1" page="1" pageScale="1" pageWidth="850" pageHeight="1100" math="0" shadow="0">
      <root>
        <mxCell id="0" />
        <mxCell id="1" parent="0" />
        <mxCell id="thVwQXQgXER0k1JvSfw0-6" value="" style="edgeStyle=orthogonalEdgeStyle;rounded=0;orthogonalLoop=1;jettySize=auto;html=1;" edge="1" parent="1" source="thVwQXQgXER0k1JvSfw0-1" target="thVwQXQgXER0k1JvSfw0-2">
          <mxGeometry relative="1" as="geometry" />
        </mxCell>
        <mxCell id="thVwQXQgXER0k1JvSfw0-1" value="INPUT" style="rounded=0;whiteSpace=wrap;html=1;" vertex="1" parent="1">
          <mxGeometry x="40" y="90" width="120" height="60" as="geometry" />
        </mxCell>
        <mxCell id="thVwQXQgXER0k1JvSfw0-7" value="" style="edgeStyle=orthogonalEdgeStyle;rounded=0;orthogonalLoop=1;jettySize=auto;html=1;" edge="1" parent="1" source="thVwQXQgXER0k1JvSfw0-2" target="thVwQXQgXER0k1JvSfw0-3">
          <mxGeometry relative="1" as="geometry" />
        </mxCell>
        <mxCell id="thVwQXQgXER0k1JvSfw0-2" value="CONTROLLER" style="rounded=0;whiteSpace=wrap;html=1;" vertex="1" parent="1">
          <mxGeometry x="200" y="90" width="120" height="60" as="geometry" />
        </mxCell>
        <mxCell id="thVwQXQgXER0k1JvSfw0-8" value="" style="edgeStyle=orthogonalEdgeStyle;rounded=0;orthogonalLoop=1;jettySize=auto;html=1;" edge="1" parent="1" source="thVwQXQgXER0k1JvSfw0-3" target="thVwQXQgXER0k1JvSfw0-4">
          <mxGeometry relative="1" as="geometry" />
        </mxCell>
        <mxCell id="thVwQXQgXER0k1JvSfw0-3" value="ACTUATOR" style="rounded=0;whiteSpace=wrap;html=1;" vertex="1" parent="1">
          <mxGeometry x="360" y="90" width="120" height="60" as="geometry" />
        </mxCell>
        <mxCell id="thVwQXQgXER0k1JvSfw0-10" value="" style="edgeStyle=orthogonalEdgeStyle;rounded=0;orthogonalLoop=1;jettySize=auto;html=1;" edge="1" parent="1" source="thVwQXQgXER0k1JvSfw0-4" target="thVwQXQgXER0k1JvSfw0-5">
          <mxGeometry relative="1" as="geometry" />
        </mxCell>
        <mxCell id="thVwQXQgXER0k1JvSfw0-4" value="PROCESS" style="rounded=0;whiteSpace=wrap;html=1;" vertex="1" parent="1">
          <mxGeometry x="520" y="90" width="120" height="60" as="geometry" />
        </mxCell>
        <mxCell id="thVwQXQgXER0k1JvSfw0-5" value="OUTPUT" style="rounded=0;whiteSpace=wrap;html=1;" vertex="1" parent="1">
          <mxGeometry x="680" y="90" width="120" height="60" as="geometry" />
        </mxCell>
      </root>
    </mxGraphModel>
  </diagram>
</mxfile>
